<svg width="320" height="72" viewBox="0 0 320 72" fill="none" xmlns="http://www.w3.org/2000/svg">
  <rect width="60" height="60" rx="18" fill="url(#paint0_linear)"/>
  <path d="M17 15H26.5L30 20.7L33.5 15H43L35.1 27.6L43.8 42H34.9L30 34L25.1 42H16.2L24.9 27.6L17 15Z" fill="white"/>
  <path d="M85.144 45L73.984 28.632L84.64 13H97.504L89.36 24.52L100.696 45H87.512L80.696 32.568L73.952 45H60.768L72.104 24.52L63.96 13H76.824L87.48 28.632L76.32 45H85.144Z" fill="#10213A"/>
  <path d="M104.332 45V13H116.396V45H104.332Z" fill="#10213A"/>
  <path d="M140.523 45.864C130.571 45.864 123.179 39.304 123.179 28.992C123.179 18.68 130.571 12.136 140.523 12.136C146.811 12.136 152.299 14.648 155.371 19.176L147.707 25.928C145.819 23.432 143.563 22.248 141.035 22.248C136.715 22.248 134.139 25.192 134.139 28.992C134.139 32.792 136.715 35.752 141.035 35.752C143.563 35.752 145.819 34.568 147.707 32.072L155.371 38.824C152.299 43.352 146.811 45.864 140.523 45.864Z" fill="#10213A"/>
  <path d="M175.584 45.864C165.632 45.864 158.24 39.304 158.24 28.992C158.24 18.68 165.632 12.136 175.584 12.136C181.872 12.136 187.36 14.648 190.432 19.176L182.768 25.928C180.88 23.432 178.624 22.248 176.096 22.248C171.776 22.248 169.2 25.192 169.2 28.992C169.2 32.792 171.776 35.752 176.096 35.752C178.624 35.752 180.88 34.568 182.768 32.072L190.432 38.824C187.36 43.352 181.872 45.864 175.584 45.864Z" fill="#10213A"/>
  <path d="M222.067 35.448V45H194.595V13H221.443V22.552H206.467V24.872H219.619V33.992H206.467V35.448H222.067Z" fill="#10213A"/>
  <path d="M249.112 35.448V45H221.64V13H248.488V22.552H233.512V24.872H246.664V33.992H233.512V35.448H249.112Z" fill="#10213A"/>
  <path d="M254.293 45V13H266.357V35.448H280.037V45H254.293Z" fill="#10213A"/>
  <path d="M285.972 45V13H298.036V45H285.972Z" fill="#10213A"/>
  <defs>
    <linearGradient id="paint0_linear" x1="6" y1="5" x2="57" y2="58" gradientUnits="userSpaceOnUse">
      <stop stop-color="#0F766E"/>
      <stop offset="1" stop-color="#F97316"/>
    </linearGradient>
  </defs>
</svg>
